<svg xmlns="http://www.w3.org/2000/svg" version="1.1" xmlns:xlink="http://www.w3.org/1999/xlink" xmlns:svgjs="http://svgjs.dev/svgjs" width="1500" height="412" viewBox="0 0 1500 412"><g transform="matrix(1,0,0,1,-0.9087576145921048,0.13123678370462244)"><svg viewBox="0 0 396 109" data-background-color="#efefef" preserveAspectRatio="xMidYMid meet" height="412" width="1500" xmlns="http://www.w3.org/2000/svg" xmlns:xlink="http://www.w3.org/1999/xlink"><g id="tight-bounds" transform="matrix(1,0,0,1,0.240034202151719,-0.03472041122282121)"><svg viewBox="0 0 395.52 109.06944082244563" height="109.06944082244563" width="395.52"><g><svg viewBox="0 0 395.52000000000004 109.06944082244564" height="109.06944082244563" width="395.52"><g transform="matrix(1,0,0,1,0,56.11822720823925)"><svg viewBox="0 0 395.52000000000004 52.9512136142064" height="52.9512136142064" width="395.52000000000004"><g id="textblocktransform"><svg viewBox="0 0 395.52000000000004 52.9512136142064" height="52.9512136142064" width="395.52000000000004" id="textblock"><g><svg viewBox="0 0 395.52000000000004 52.9512136142064" height="52.9512136142064" width="395.52000000000004"><g transform="matrix(1,0,0,1,0,0)"><svg width="395.52000000000004" viewBox="1.1785376756494474 -21.246545067500833 367.6684123243505 49.22251133944402" height="52.9512136142064" data-palette-color="#d94e28"><path d="M20.702 7.883l-4.469-0.678c0.183-1.206 0.003-2.329-0.541-3.369-0.545-1.033-1.295-2.044-2.251-3.032-0.957-0.981-1.984-1.99-3.081-3.026-1.104-1.037-2.116-2.145-3.036-3.323-0.927-1.179-1.639-2.467-2.134-3.864-0.49-1.396-0.605-2.944-0.348-4.645v0l4.469 0.678c-0.178 1.173 0.005 2.28 0.548 3.32 0.551 1.034 1.304 2.052 2.258 3.053 0.947 1 1.973 2.019 3.077 3.056 1.097 1.036 2.111 2.134 3.04 3.293 0.929 1.166 1.638 2.447 2.128 3.843 0.49 1.396 0.603 2.961 0.34 4.694zM9.296-13.277l-4.469-0.678c0.274-1.806 0.916-3.283 1.926-4.431 1.011-1.155 2.307-1.963 3.888-2.424 1.575-0.469 3.311-0.56 5.21-0.272v0l-0.582 3.836c-1.635-0.248-2.981-0.017-4.04 0.692-1.065 0.708-1.709 1.801-1.933 3.277zM16.248 7.106l4.469 0.678c-0.269 1.773-0.91 3.244-1.923 4.411-1.013 1.168-2.3 1.984-3.861 2.449-1.561 0.465-3.307 0.55-5.238 0.258v0l0.588-3.876c1.635 0.248 2.983 0.028 4.045-0.661 1.056-0.696 1.696-1.782 1.92-3.259zM23.53-12.433l-4.299 0.208c0.059-1.501-0.29-2.667-1.048-3.497-0.763-0.837-1.735-1.345-2.914-1.524v0l0.582-3.836c1.542 0.234 2.889 0.758 4.039 1.573 1.145 0.808 2.044 1.814 2.698 3.019 0.66 1.206 0.974 2.558 0.942 4.057zM1.188 3.77l4.199-0.213c-0.115 2.093 0.253 3.798 1.106 5.114 0.859 1.317 2.122 2.102 3.79 2.355v0l-0.588 3.876c-2.782-0.422-4.92-1.616-6.415-3.583-1.495-1.966-2.193-4.483-2.092-7.549zM40.869-6.838l4.482 0.59-3.277 24.865-4.482-0.59zM27.029-8.662l4.481 0.59-2.231 16.934-4.482-0.591zM24.797 8.271l4.482 0.591c-0.182 1.381 0.106 2.566 0.863 3.553 0.758 0.981 1.808 1.56 3.15 1.737v0l-1.656 3.836c-1.54-0.203-2.862-0.76-3.965-1.672-1.097-0.911-1.903-2.07-2.417-3.476-0.522-1.4-0.674-2.923-0.457-4.569zM38.656 9.957l1.973 0.26c-0.22 1.672-0.755 3.128-1.605 4.367-0.849 1.24-1.923 2.167-3.221 2.783-1.304 0.608-2.693 0.815-4.167 0.621v0l1.656-3.836c1.381 0.182 2.573-0.111 3.575-0.881 1.002-0.769 1.599-1.874 1.789-3.314zM52.739 19.813l-4.492-0.499 2.771-24.926 4.493 0.499zM66.604 21.355l-4.492-0.5 1.887-16.975 4.492 0.499zM68.491 4.379l-4.492-0.499c0.154-1.385-0.148-2.559-0.906-3.522-0.757-0.97-1.809-1.529-3.154-1.678v0l1.577-3.87c1.511 0.168 2.824 0.696 3.939 1.585 1.122 0.889 1.954 2.032 2.497 3.427 0.543 1.389 0.723 2.908 0.539 4.557zM54.616 2.937l-1.978-0.219c0.187-1.683 0.703-3.152 1.546-4.407 0.837-1.255 1.891-2.195 3.161-2.818 1.263-0.624 2.654-0.852 4.171-0.683v0l-1.577 3.87c-1.418-0.158-2.62 0.158-3.607 0.947-0.987 0.789-1.559 1.893-1.716 3.31zM76.426 22.258l-4.501-0.419 2.325-24.972 4.501 0.419zM77.982 5.54l-2.031-0.189c0.156-1.679 0.579-3.16 1.267-4.442 0.682-1.282 1.546-2.256 2.592-2.922 1.04-0.666 2.153-0.944 3.342-0.834v0l-0.79 4.165c-1.155-0.108-2.141 0.239-2.959 1.04-0.825 0.807-1.299 1.868-1.421 3.182zM87.108-0.892l-1.884 3.621c-0.361-0.368-0.803-0.684-1.328-0.947-0.525-0.263-1.036-0.418-1.534-0.464v0l0.79-4.165c0.757 0.07 1.484 0.279 2.181 0.625 0.704 0.347 1.296 0.79 1.775 1.33zM93.538 23.736l-4.505-0.369 2.047-24.997 4.505 0.369zM93.574-4.766v0c-0.824-0.067-1.492-0.403-2.004-1.007-0.519-0.604-0.745-1.322-0.677-2.153v0c0.067-0.824 0.407-1.502 1.02-2.033 0.605-0.532 1.32-0.765 2.144-0.698v0c0.824 0.067 1.501 0.414 2.032 1.04 0.531 0.625 0.762 1.35 0.694 2.173v0c-0.068 0.831-0.414 1.501-1.037 2.013-0.624 0.511-1.348 0.732-2.172 0.665zM112.335 18.546v0c0.055-0.825-0.198-1.53-0.761-2.116-0.555-0.585-1.287-1.132-2.195-1.64-0.915-0.509-1.875-1.028-2.882-1.557-1.013-0.536-1.968-1.141-2.865-1.815-0.904-0.669-1.62-1.495-2.149-2.48-0.535-0.985-0.758-2.152-0.667-3.502v0c0 0 0.143 0.01 0.429 0.029 0.279 0.019 0.642 0.043 1.087 0.073 0.446 0.03 0.881 0.059 1.307 0.087 0.432 0.029 0.798 0.054 1.098 0.074 0.293 0.02 0.439 0.029 0.439 0.029v0c-0.055 0.825 0.198 1.53 0.76 2.116 0.555 0.585 1.291 1.122 2.207 1.611 0.909 0.495 1.876 1.018 2.902 1.568 1.026 0.55 1.98 1.168 2.862 1.855 0.882 0.694 1.599 1.514 2.15 2.46 0.551 0.952 0.78 2.12 0.688 3.504v0c0 0-0.15-0.01-0.449-0.031-0.299-0.02-0.672-0.045-1.118-0.074-0.446-0.03-0.881-0.059-1.307-0.088-0.432-0.029-0.795-0.053-1.087-0.073-0.299-0.02-0.449-0.03-0.449-0.03zM107.642 25.447v0l0.263-3.911c1.217 0.082 2.246-0.157 3.084-0.715 0.833-0.559 1.281-1.317 1.346-2.275v0l4.41 0.296c-0.093 1.39-0.549 2.606-1.367 3.646-0.818 1.041-1.89 1.824-3.215 2.351-1.331 0.519-2.838 0.722-4.521 0.608zM105.176 5.728l-4.36-0.292c0.091-1.357 0.512-2.548 1.262-3.574 0.751-1.032 1.758-1.81 3.022-2.333 1.258-0.53 2.632-0.746 4.123-0.645v0l-0.262 3.911c-1.024-0.069-1.896 0.17-2.614 0.717-0.719 0.553-1.109 1.292-1.171 2.216zM99.267 17.479l4.217-0.569c0.069 1.468 0.525 2.584 1.369 3.349 0.844 0.771 1.861 1.197 3.052 1.277v0l-0.263 3.911c-1.523-0.102-2.906-0.509-4.147-1.22-1.249-0.712-2.241-1.657-2.977-2.835-0.729-1.178-1.147-2.482-1.251-3.913zM117.598 6.862l-4.267 0.556c-0.067-1.494-0.516-2.62-1.347-3.378-0.825-0.75-1.833-1.165-3.023-1.245v0l0.262-3.911c1.55 0.104 2.932 0.511 4.148 1.22 1.215 0.71 2.198 1.647 2.948 2.813 0.751 1.159 1.177 2.474 1.279 3.945zM138.856 15.204l-16.91-0.823 0.157-3.226 16.91 0.823zM129.295 26.713l-0.24-0.012 0.191-3.915 0.239 0.011zM124.911 16.808l-4.515-0.22 0.355-7.291 4.515 0.219zM139.013 11.978l-4.515-0.22 0.125-2.577 4.515 0.22zM139.138 9.401v0l-4.515-0.22c0.071-1.458-0.307-2.671-1.134-3.64-0.834-0.968-1.943-1.486-3.328-1.553v0l0.188-3.866c1.785 0.087 3.344 0.543 4.679 1.369 1.335 0.826 2.376 1.928 3.123 3.306 0.741 1.378 1.07 2.912 0.987 4.604zM134.36 18.709v0l4.173 1.054c-0.262 1.409-0.837 2.656-1.723 3.741-0.88 1.085-1.962 1.91-3.245 2.475-1.289 0.565-2.713 0.809-4.27 0.734v0l0.19-3.916c1.192 0.058 2.245-0.248 3.159-0.917 0.907-0.663 1.479-1.72 1.716-3.171zM125.264 9.566l-4.515-0.219c0.092-1.884 0.575-3.526 1.451-4.926 0.882-1.399 2.03-2.488 3.443-3.266 1.413-0.772 2.998-1.116 4.756-1.03v0l-0.189 3.865c-1.458-0.071-2.625 0.376-3.499 1.342-0.875 0.972-1.357 2.383-1.447 4.234zM120.396 16.588v0l4.515 0.22c-0.088 1.818 0.255 3.253 1.032 4.305 0.777 1.046 1.894 1.604 3.353 1.675v0l-0.191 3.915c-1.758-0.086-3.302-0.581-4.633-1.487-1.331-0.912-2.367-2.114-3.109-3.605-0.735-1.497-1.057-3.172-0.967-5.023zM162.165 19.208l-4.518-0.132c0.036-1.219-0.279-2.312-0.944-3.279-0.666-0.96-1.533-1.872-2.601-2.737-1.069-0.858-2.21-1.735-3.425-2.631-1.221-0.896-2.36-1.873-3.416-2.931-1.063-1.058-1.925-2.251-2.586-3.578-0.655-1.326-0.957-2.849-0.907-4.568v0l4.518 0.132c-0.035 1.186 0.281 2.263 0.946 3.229 0.672 0.96 1.542 1.879 2.611 2.758 1.061 0.878 2.203 1.765 3.423 2.661 1.214 0.896 2.353 1.863 3.417 2.901 1.063 1.045 1.922 2.23 2.577 3.557 0.655 1.326 0.957 2.866 0.905 4.618zM148.283-0.416l-4.518-0.132c0.053-1.826 0.512-3.37 1.376-4.632 0.864-1.269 2.053-2.228 3.566-2.877 1.506-0.656 3.219-0.956 5.138-0.9v0l-0.113 3.878c-1.653-0.048-2.961 0.344-3.926 1.176-0.971 0.832-1.479 1.994-1.523 3.487zM157.65 18.976l4.518 0.132c-0.052 1.793-0.511 3.33-1.375 4.612-0.865 1.282-2.043 2.248-3.536 2.898-1.493 0.65-3.216 0.946-5.168 0.889v0l0.114-3.918c1.653 0.048 2.964-0.333 3.935-1.146 0.964-0.819 1.468-1.975 1.512-3.467zM162.515-1.3l-4.243 0.726c-0.123-1.498-0.611-2.612-1.463-3.344-0.859-0.739-1.885-1.126-3.077-1.161v0l0.113-3.878c1.559 0.046 2.959 0.403 4.201 1.073 1.234 0.663 2.249 1.553 3.043 2.67 0.801 1.117 1.276 2.422 1.426 3.914zM142.297 17.487l4.143-0.719c0.139 2.092 0.711 3.739 1.716 4.942 1.012 1.203 2.361 1.83 4.047 1.879v0l-0.114 3.918c-2.812-0.082-5.079-1.009-6.802-2.78-1.722-1.771-2.719-4.185-2.99-7.24zM184.188 16.104l-16.93-0.166 0.032-3.23 16.929 0.166zM175.081 27.975l-0.24-0.002 0.038-3.92 0.24 0.003zM170.316 18.248l-4.52-0.044 0.072-7.3 4.52 0.045zM184.219 12.874l-4.519-0.044 0.025-2.58 4.52 0.044zM184.245 10.294v0l-4.52-0.044c0.014-1.46-0.411-2.657-1.275-3.593-0.871-0.935-2-1.41-3.386-1.423v0l0.038-3.87c1.787 0.018 3.363 0.413 4.728 1.187 1.366 0.773 2.449 1.834 3.249 3.182 0.793 1.348 1.182 2.868 1.166 4.561zM179.831 19.782v0l4.212 0.891c-0.207 1.418-0.733 2.686-1.577 3.805-0.838 1.119-1.886 1.985-3.146 2.599-1.266 0.614-2.679 0.914-4.239 0.898v0l0.038-3.919c1.193 0.012 2.233-0.335 3.121-1.04 0.88-0.698 1.411-1.776 1.591-3.234zM170.387 10.999l-4.52-0.045c0.018-1.887 0.438-3.546 1.259-4.978 0.827-1.432 1.932-2.565 3.314-3.397 1.381-0.827 2.952-1.231 4.712-1.214v0l-0.038 3.87c-1.46-0.014-2.608 0.478-3.445 1.476-0.837 1.005-1.264 2.434-1.282 4.288zM165.796 18.204v0l4.52 0.044c-0.018 1.82 0.382 3.241 1.198 4.262 0.817 1.015 1.955 1.529 3.415 1.544v0l-0.038 3.92c-1.76-0.017-3.322-0.453-4.687-1.306-1.365-0.86-2.447-2.021-3.247-3.482-0.792-1.468-1.179-3.128-1.161-4.982zM193.453 27.191l-4.519 0.041-0.224-25.079 4.52-0.041zM207.403 27.067l-4.52 0.041-0.152-17.08 4.52-0.04zM207.251 9.988l-4.52 0.04c-0.012-1.393-0.452-2.523-1.32-3.388-0.868-0.872-1.978-1.302-3.332-1.291v0l1.104-4.03c1.52-0.014 2.887 0.354 4.1 1.104 1.22 0.749 2.183 1.784 2.888 3.104 0.705 1.314 1.065 2.801 1.08 4.461zM193.302 10.212l-1.99 0.018c-0.015-1.693 0.321-3.213 1.01-4.559 0.681-1.346 1.615-2.404 2.802-3.175 1.18-0.771 2.533-1.163 4.059-1.177v0l-1.104 4.03c-1.427 0.013-2.583 0.47-3.468 1.371-0.885 0.901-1.322 2.065-1.309 3.492zM218.702 19.143l-4.519 0.125-0.757-27.45 4.52-0.074zM224.57 5.226l-13.645 0.376-0.102-3.728 13.644-0.377zM214.182 19.218v0l4.518-0.125c0.026 0.96 0.179 1.769 0.457 2.428 0.285 0.652 0.682 1.145 1.192 1.478 0.503 0.333 1.101 0.49 1.793 0.471v0l-0.281 3.929c-2.319 0.064-4.162-0.619-5.529-2.048-1.36-1.436-2.077-3.481-2.15-6.133zM224.458 22.566v0l1.879 3.179c-0.653 0.512-1.362 0.911-2.128 1.199-0.773 0.281-1.555 0.433-2.349 0.455v0l0.282-3.929c0.433-0.012 0.838-0.096 1.214-0.254 0.376-0.164 0.743-0.381 1.102-0.65zM235.231 26.183l-4.517 0.174-0.967-25.061 4.516-0.175zM231.846-2.118v0c-0.826 0.032-1.53-0.221-2.111-0.759-0.588-0.538-0.898-1.223-0.93-2.056v0c-0.032-0.826 0.224-1.54 0.768-2.141 0.537-0.601 1.219-0.918 2.045-0.949v0c0.826-0.032 1.54 0.231 2.142 0.787 0.602 0.557 0.919 1.249 0.951 2.075v0c0.032 0.833-0.231 1.54-0.789 2.122-0.558 0.582-1.25 0.889-2.076 0.921zM246.379 25.609l-4.514 0.243-1.349-25.044 4.513-0.243zM260.309 24.858l-4.514 0.244-0.919-17.056 4.514-0.243zM259.39 7.803l-4.514 0.243c-0.075-1.391-0.565-2.5-1.471-3.325-0.906-0.832-2.035-1.212-3.386-1.14v0l0.922-4.075c1.518-0.082 2.9 0.224 4.145 0.918 1.252 0.694 2.261 1.684 3.025 2.972 0.763 1.281 1.19 2.75 1.279 4.407zM245.465 8.654l-1.987 0.107c-0.091-1.691 0.177-3.224 0.804-4.6 0.62-1.375 1.506-2.475 2.656-3.298 1.144-0.823 2.478-1.275 4.003-1.357v0l-0.922 4.075c-1.425 0.077-2.559 0.585-3.403 1.526-0.844 0.94-1.228 2.122-1.151 3.547zM281.922 12.049l-16.883 1.252-0.239-3.221 16.884-1.252zM273.841 24.641l-0.239 0.018-0.29-3.909 0.24-0.018zM268.279 15.347l-4.508 0.334-0.54-7.28 4.508-0.334zM281.684 8.828l-4.508 0.334-0.191-2.573 4.508-0.334zM281.493 6.255v0l-4.508 0.334c-0.108-1.456-0.632-2.614-1.571-3.473-0.946-0.859-2.111-1.237-3.493-1.135v0l-0.287-3.859c1.782-0.132 3.386 0.13 4.812 0.786 1.426 0.656 2.594 1.623 3.504 2.899 0.904 1.277 1.418 2.759 1.543 4.448zM277.889 16.078v0l4.272 0.536c-0.088 1.43-0.506 2.738-1.254 3.923-0.741 1.185-1.713 2.136-2.917 2.854-1.21 0.718-2.593 1.135-4.149 1.25v0l-0.29-3.909c1.19-0.088 2.198-0.521 3.023-1.297 0.819-0.769 1.257-1.888 1.315-3.357zM267.743 8.117l-4.508 0.334c-0.14-1.881 0.14-3.57 0.838-5.066 0.705-1.496 1.71-2.717 3.017-3.663 1.307-0.939 2.839-1.474 4.594-1.604v0l0.286 3.859c-1.456 0.108-2.559 0.694-3.309 1.76-0.749 1.072-1.056 2.532-0.918 4.38zM263.771 15.681v0l4.508-0.334c0.135 1.815 0.652 3.197 1.551 4.147 0.899 0.943 2.076 1.36 3.532 1.252v0l0.29 3.909c-1.755 0.13-3.349-0.173-4.78-0.909-1.432-0.743-2.608-1.809-3.527-3.198-0.912-1.396-1.437-3.019-1.574-4.867zM292.511 22.33l-4.503 0.392-3.097-35.626 4.503-0.392zM301.501 21.658v0c-0.823 0.08-1.54-0.135-2.153-0.645-0.618-0.502-0.968-1.165-1.048-1.987v0c-0.08-0.823 0.134-1.55 0.642-2.183 0.501-0.632 1.163-0.987 1.985-1.068v0c0.823-0.08 1.551 0.14 2.185 0.662 0.634 0.521 0.99 1.193 1.071 2.015v0c0.08 0.823-0.141 1.541-0.665 2.155-0.522 0.62-1.195 0.97-2.017 1.051zM314.555 20.049l-4.491 0.504-2.8-24.923 4.492-0.505zM328.418 18.491l-4.491 0.505-1.907-16.973 4.492-0.505zM326.512 1.518l-4.492 0.505c-0.156-1.385-0.709-2.463-1.662-3.235-0.953-0.778-2.102-1.092-3.446-0.941v0l0.684-4.122c1.51-0.17 2.908 0.056 4.191 0.676 1.291 0.62 2.354 1.55 3.192 2.791 0.836 1.234 1.347 2.676 1.532 4.326zM312.66 3.175l-1.978 0.222c-0.189-1.683-0.011-3.229 0.536-4.639 0.539-1.409 1.36-2.558 2.46-3.446 1.094-0.888 2.4-1.417 3.918-1.587v0l-0.684 4.122c-1.418 0.159-2.521 0.733-3.309 1.72-0.788 0.987-1.102 2.19-0.943 3.608zM349.253 4.45l-16.783 2.229-0.425-3.202 16.782-2.229zM341.916 17.489l-0.238 0.032-0.516-3.886 0.238-0.032zM335.823 8.534l-4.48 0.595-0.961-7.237 4.48-0.595zM348.827 1.248l-4.48 0.595-0.34-2.558 4.481-0.595zM348.488-1.31v0l-4.481 0.595c-0.192-1.447-0.782-2.573-1.77-3.376-0.994-0.803-2.179-1.113-3.553-0.93v0l-0.51-3.836c1.771-0.235 3.387-0.067 4.849 0.506 1.461 0.573 2.684 1.469 3.666 2.69 0.976 1.222 1.576 2.672 1.799 4.351zM345.46 8.706v0l4.295 0.287c-0.005 1.433-0.346 2.763-1.023 3.99-0.671 1.226-1.587 2.232-2.747 3.018-1.167 0.787-2.523 1.283-4.069 1.488v0l-0.516-3.886c1.183-0.157 2.164-0.647 2.942-1.47 0.773-0.816 1.146-1.958 1.118-3.427zM334.869 1.347l-4.481 0.595c-0.248-1.87-0.068-3.572 0.543-5.106 0.617-1.535 1.55-2.812 2.799-3.832 1.251-1.014 2.748-1.636 4.494-1.868v0l0.509 3.836c-1.447 0.192-2.514 0.842-3.201 1.949-0.686 1.113-0.907 2.589-0.663 4.426zM331.343 9.129v0l4.48-0.595c0.24 1.804 0.836 3.154 1.789 4.049 0.952 0.889 2.152 1.237 3.599 1.045v0l0.516 3.886c-1.745 0.232-3.353 0.022-4.825-0.63-1.473-0.658-2.708-1.654-3.705-2.988-0.992-1.341-1.61-2.93-1.854-4.767zM360.467 6.371l-4.469 0.672-4.082-27.155 4.477-0.623zM364.604-8.155l-13.498 2.029-0.555-3.689 13.499-2.029zM355.99 6.993v0l4.47-0.672c0.143 0.949 0.392 1.734 0.748 2.355 0.362 0.613 0.816 1.054 1.362 1.323 0.539 0.269 1.152 0.353 1.838 0.249v0l0.197 3.935c-2.294 0.345-4.206-0.109-5.737-1.363-1.524-1.261-2.484-3.203-2.878-5.827zM366.597 9.07v0l2.25 2.928c-0.586 0.587-1.241 1.07-1.967 1.448-0.733 0.373-1.491 0.619-2.275 0.737v0l-0.197-3.935c0.429-0.064 0.82-0.197 1.173-0.399 0.353-0.208 0.691-0.468 1.016-0.779z" opacity="1" transform="matrix(1,0,0,1,0,0)" fill="#d94e28" class="wordmark-text-0" data-fill-palette-color="primary" id="text-0"></path></svg></g></svg></g></svg></g></svg></g><g transform="matrix(1,0,0,1,144.14286152594588,0)"><svg viewBox="0 0 107.23427694810827 52.951213614206395" height="52.951213614206395" width="107.23427694810827"><g><svg xmlns="http://www.w3.org/2000/svg" xmlns:xlink="http://www.w3.org/1999/xlink" version="1.1" x="0" y="0" viewBox="0 3.6209999999999907 100 49.37900000000001" enable-background="new 0 0 100 53.303" xml:space="preserve" width="107.23427694810827" height="52.951213614206395" class="icon-icon-0" data-fill-palette-color="accent" id="icon-0"><g fill="#f9744c" data-fill-palette-color="accent"><rect x="0" y="49.89" fill="#f9744c" width="100" height="3.413" data-fill-palette-color="accent"></rect><path fill="#f9744c" d="M22.84 44.807H11.514v2.921h11.108 1.402 52.448 1.619 10.891v-2.921H77.874c-0.253-1.953-0.723-3.839-1.381-5.639l19.045-6.581-0.952-2.763-19.249 6.648c-1.038-2.087-2.343-4.023-3.875-5.769l8.646-8.648-2.065-2.065-8.626 8.626c-1.819-1.675-3.868-3.115-6.102-4.265l9.461-19.449-2.627-1.281-9.503 19.533c-2.858-1.11-5.95-1.772-9.186-1.896V9.721h-2.922v11.575c-3.068 0.192-6.001 0.867-8.717 1.952L30.347 3.774l-2.626 1.281 9.445 19.417c-2.222 1.171-4.259 2.629-6.063 4.32l-8.649-8.649-2.065 2.065 8.69 8.691c-1.505 1.748-2.78 3.687-3.795 5.769L5.911 29.977l-0.952 2.763 19.189 6.63C23.527 41.108 23.083 42.927 22.84 44.807z" data-fill-palette-color="accent"></path></g></svg></g></svg></g><g></g></svg></g><defs></defs></svg><rect width="395.52" height="109.06944082244563" fill="none" stroke="none" visibility="hidden"></rect></g></svg></g></svg>